<?xml version="1.0"?>
<svg xmlns="http://www.w3.org/2000/svg" viewBox="0 0 64 64" width="512" height="512"><g id="flat"><rect x="3" y="3" width="58" height="58" style="fill:#394d5c"/><rect x="7" y="7" width="50" height="4" style="fill:#cfdfe8"/><rect x="12" y="15" width="4" height="28" style="fill:#f4f4e6"/><rect x="24" y="15" width="4" height="28" style="fill:#f4f4e6"/><rect x="36" y="15" width="4" height="28" style="fill:#f4f4e6"/><rect x="8" y="19" width="12" height="4" style="fill:#dd3e46"/><rect x="20" y="27" width="12" height="4" style="fill:#dd3e46"/><rect x="32" y="19" width="12" height="4" style="fill:#dd3e46"/><rect x="48" y="15" width="4" height="28" style="fill:#f4f4e6"/><rect x="44" y="35" width="12" height="4" style="fill:#dd3e46"/><circle cx="14" cy="53" r="5" style="fill:#728d9e"/><circle cx="26" cy="53" r="5" style="fill:#728d9e"/><rect x="37" y="49" width="18" height="8" style="fill:#f4f4e6"/><rect x="13" y="49" width="2" height="4" style="fill:#cfdfe8"/><rect x="25" y="49" width="2" height="4" style="fill:#cfdfe8"/><rect x="43" y="52" width="5" height="2" style="fill:#394d5c"/><rect x="50" y="52" width="2" height="2" style="fill:#394d5c"/></g></svg>
